<svg width="104" height="104" viewBox="0 0 104 104" fill="none" xmlns="http://www.w3.org/2000/svg">
<circle cx="52" cy="52" r="52" fill="#23C7EC"/>
<path d="M64.8477 70H39.9902V65.7598L52.3047 52.3281C54.082 50.3477 55.3431 48.6973 56.0879 47.377C56.8496 46.0397 57.2305 44.7025 57.2305 43.3652C57.2305 41.6048 56.7311 40.1829 55.7324 39.0996C54.7507 38.0163 53.4219 37.4746 51.7461 37.4746C49.7487 37.4746 48.1999 38.084 47.0996 39.3027C45.9993 40.5215 45.4492 42.1888 45.4492 44.3047H39.2793C39.2793 42.0534 39.7871 40.0306 40.8027 38.2363C41.8353 36.4251 43.2995 35.0202 45.1953 34.0215C47.1081 33.0228 49.3086 32.5234 51.7969 32.5234C55.3854 32.5234 58.2122 33.429 60.2773 35.2402C62.3594 37.0345 63.4004 39.5228 63.4004 42.7051C63.4004 44.5501 62.8757 46.4883 61.8262 48.5195C60.7936 50.5339 59.0924 52.8275 56.7227 55.4004L47.6836 65.0742H64.8477V70Z" fill="white"/>
</svg>
