<svg width="104" height="104" viewBox="0 0 104 104" fill="none" xmlns="http://www.w3.org/2000/svg">
<circle cx="52" cy="52" r="52" fill="#23C7EC"/>
<path d="M47.125 48.6973H50.8828C52.7786 48.6803 54.2767 48.1895 55.377 47.2246C56.4941 46.2598 57.0527 44.8633 57.0527 43.0352C57.0527 41.2747 56.5872 39.9121 55.6562 38.9473C54.7422 37.9655 53.3372 37.4746 51.4414 37.4746C49.7826 37.4746 48.4199 37.957 47.3535 38.9219C46.2871 39.8698 45.7539 41.1139 45.7539 42.6543H39.584C39.584 40.7585 40.0833 39.0319 41.082 37.4746C42.0977 35.9173 43.5026 34.707 45.2969 33.8438C47.1081 32.9635 49.1309 32.5234 51.3652 32.5234C55.0553 32.5234 57.9499 33.4544 60.0488 35.3164C62.1647 37.1615 63.2227 39.7344 63.2227 43.0352C63.2227 44.694 62.6895 46.2598 61.623 47.7324C60.5736 49.1882 59.2109 50.2884 57.5352 51.0332C59.5664 51.7272 61.1068 52.819 62.1562 54.3086C63.2227 55.7982 63.7559 57.5755 63.7559 59.6406C63.7559 62.9583 62.6133 65.599 60.3281 67.5625C58.0599 69.526 55.0723 70.5078 51.3652 70.5078C47.8105 70.5078 44.8991 69.5599 42.6309 67.6641C40.3626 65.7682 39.2285 63.2461 39.2285 60.0977H45.3984C45.3984 61.7227 45.9401 63.043 47.0234 64.0586C48.1237 65.0742 49.5964 65.582 51.4414 65.582C53.3542 65.582 54.8607 65.0742 55.9609 64.0586C57.0612 63.043 57.6113 61.5703 57.6113 59.6406C57.6113 57.694 57.0358 56.196 55.8848 55.1465C54.7337 54.097 53.0241 53.5723 50.7559 53.5723H47.125V48.6973Z" fill="white"/>
</svg>
